# xmcd
#
# Track frame offsets:
#	150
#	19275
#	38550
#	52350
#	69075
#	81150
#	97950
#	114225
#	130950
#	146775
#	162375
#	179175
#	196575
#	216750
#	236475
#	250275
#	265425
#	280575
#
# Disc length: 3912 seconds
#
# Revision: 1
# Processed by: cddbd v1.5PL3 Copyright (c) Steve Scherf et al.
# Submitted via: EasyCDDAExtractor 6.0.0.1
#
DISCID=070f4612
DTITLE=Hawaiian Magic - Best of the Islands
DYEAR=1994
DGENRE=
TTITLE0=Waimanalo Blues
TTITLE1=You are so Beautiful
TTITLE2=Maika'i ka Makani O Kohala
TTITLE3=Shells
TTITLE4=Analani E'
TTITLE5=Cheri
TTITLE6=Hanalei
TTITLE7=Hawaiian Eyes
TTITLE8=Sunny
TTITLE9=Lonely Summers
TTITLE10=Talk with Me, Waikiki
TTITLE11=Hawaiian Lullaby
TTITLE12=Days of my Youth
TTITLE13=Sound of Love
TTITLE14=Maka Hilahila
TTITLE15=Over and Over
TTITLE16=Sealed with a Kiss
TTITLE17=Ulili E
EXTD=
EXTT0=
EXTT1=
EXTT2=
EXTT3=
EXTT4=
EXTT5=
EXTT6=
EXTT7=
EXTT8=
EXTT9=
EXTT10=
EXTT11=
EXTT12=
EXTT13=
EXTT14=
EXTT15=
EXTT16=
EXTT17=
PLAYORDER=
